<!DOCTYPE svg PUBLIC "-//W3C//DTD SVG 1.1//EN" "http://www.w3.org/Graphics/SVG/1.1/DTD/svg11.dtd">
<!-- Uploaded to: SVG Repo, www.svgrepo.com, Transformed by: SVG Repo Mixer Tools -->
<svg height="800px" width="800px" version="1.1" id="Layer_1" xmlns="http://www.w3.org/2000/svg" xmlns:xlink="http://www.w3.org/1999/xlink" viewBox="0 0 512 512" xml:space="preserve" fill="#4f4f4f" stroke="#4f4f4f">
<g id="SVGRepo_bgCarrier" stroke-width="0"/>
<g id="SVGRepo_tracerCarrier" stroke-linecap="round" stroke-linejoin="round"/>
<g id="SVGRepo_iconCarrier"> <path style="fill:#00ADB5;" d="M116.532,215.7H395.47c36.816,0,57.855,42.009,35.803,71.491L286.019,481.379 c-14.993,20.043-45.041,20.043-60.034,0L80.729,287.191C58.677,257.709,79.714,215.7,116.532,215.7z"/> <path style="fill:#4d4d4d;" d="M449.386,233.411c-10.286-20.54-30.946-33.298-53.916-33.298h-66.552 C326.773,89.402,236.06,0,124.847,0c-8.61,0-15.589,6.979-15.589,15.589v114.759c0,8.61,6.979,15.589,15.589,15.589 c14.01,0,27.556,5.074,38.143,14.29c6.496,5.654,16.342,4.97,21.993-1.525c5.653-6.494,4.97-16.34-1.525-21.993 c-12.293-10.699-27.185-17.765-43.024-20.577V31.875c86.772,7.791,155.289,79.949,157.307,168.237H116.53 c-22.97,0-43.63,12.76-53.916,33.298s-8.128,44.725,5.631,63.119l145.254,194.188c10.117,13.526,25.608,21.284,42.5,21.284 s32.383-7.759,42.5-21.284l145.254-194.188C457.514,278.135,459.671,253.949,449.386,233.411z M418.789,277.855L273.535,472.043 c-4.173,5.581-10.565,8.781-17.534,8.781c-6.97,0-13.36-3.2-17.534-8.781L93.212,277.855c-6.745-9.018-7.762-20.414-2.72-30.484 c5.041-10.07,14.777-16.081,26.038-16.081h278.94c11.261,0,20.995,6.011,26.038,16.081 C426.551,257.441,425.535,268.837,418.789,277.855z"/> </g>
</svg>